<?xml version="1.0" encoding="UTF-8" standalone="no"?>
<svg xmlns="http://www.w3.org/2000/svg" viewBox="0 0 200 200">
  <!-- Light blue shapes -->
  <path d="M40,60 L60,100 L40,140 L20,100 Z" fill="#8DC3F2"/>
  <path d="M160,60 L180,100 L160,140 L140,100 Z" fill="#8DC3F2"/>
  
  <!-- Dark blue shapes -->
  <path d="M70,60 L90,100 L70,140 L50,100 Z" fill="#1E4388"/>
  <path d="M100,60 L120,100 L100,140 L80,100 Z" fill="#1E4388"/>
  <path d="M130,60 L150,100 L130,140 L110,100 Z" fill="#1E4388"/>
  
  <!-- USV text -->
  <path d="M60,150 C60,140 65,135 75,135 C85,135 90,140 90,150 L90,170 L75,170 L75,150 C75,147 73,145 70,145 C67,145 65,147 65,150 L65,170 L50,170 L50,150 Z" fill="#1E4388"/>
  <path d="M95,135 C85,135 77.5,140 77.5,147.5 C77.5,155 85,160 95,160 C105,160 112.5,155 112.5,147.5 C112.5,140 105,135 95,135 Z M95,150 C92,150 90,148 90,145 C90,142 92,140 95,140 C98,140 100,142 100,145 C100,148 98,150 95,150 Z" fill="#1E4388"/>
  <path d="M120,135 L135,135 L150,170 L135,170 L132.5,162.5 L122.5,162.5 L120,170 L105,170 Z M125,155 L130,155 L127.5,145 Z" fill="#1E4388"/>
</svg>
